<svg version="1.0" xmlns="http://www.w3.org/2000/svg"
 width="300.000000pt" height="300.000000pt" viewBox="0 0 300.000000 300.000000"
 preserveAspectRatio="xMidYMid meet">
<metadata>
Created by potrace 1.10, written by Peter Selinger 2001-2011
</metadata>
<g transform="translate(0.000000,300.000000) scale(0.050000,-0.050000)"
fill="#000000" stroke="none">
<path d="M3551 5419 c6 -11 0 -20 -15 -21 -14 -1 -3 -9 24 -18 49 -16 49 -16
4 -18 -30 -1 -41 -10 -32 -25 17 -27 -23 -7 -76 38 -85 73 -538 -71 -486 -155
5 -8 -30 -54 -77 -104 -100 -104 -181 -242 -220 -373 -16 -51 -43 -128 -61
-171 l-32 -77 70 -60 c81 -69 90 -142 40 -307 -16 -54 -30 -122 -30 -152 0
-40 -39 -109 -40 -72 -2 32 -58 157 -59 130 -1 -20 13 -63 30 -96 38 -73 23
-171 -46 -298 -102 -188 -23 -481 210 -786 106 -139 121 -119 -155 -214 -263
-91 -277 -100 -155 -100 50 0 106 -6 124 -12 24 -10 28 -4 17 25 -7 20 56 -26
142 -102 118 -106 148 -142 123 -151 -18 -6 -44 -33 -59 -61 -14 -27 -35 -47
-46 -45 -11 2 -41 -18 -67 -45 -25 -27 -56 -49 -67 -49 -12 0 16 35 63 78 98
89 104 118 36 181 -46 43 -91 42 -91 -3 0 -13 11 -12 30 4 44 36 40 -13 -9
-113 -22 -45 -44 -106 -49 -136 -6 -30 -25 -77 -43 -105 -18 -27 -27 -55 -21
-61 7 -6 12 0 12 15 0 15 5 22 11 16 17 -17 -13 -117 -32 -105 -19 11 -50
-167 -32 -185 7 -7 27 21 44 63 17 41 107 152 200 246 93 94 169 181 169 192
0 11 5 15 11 8 31 -31 -48 -190 -150 -303 -62 -67 -137 -156 -168 -197 l-57
-74 11 -283 c13 -341 4 -330 129 -154 102 143 114 188 42 165 -21 -6 -38 -4
-38 5 -1 57 -39 74 -82 35 -27 -24 -38 -27 -28 -9 27 49 138 207 165 236 30
32 33 51 5 34 -11 -7 -20 -3 -20 9 0 11 18 21 41 21 28 0 39 11 35 35 -3 19 5
33 19 30 25 -5 124 117 176 217 24 46 21 68 -23 195 -55 160 -51 183 69 323
68 81 90 75 64 -18 -19 -64 -18 -65 24 -37 23 16 47 40 51 53 14 42 -188 222
-251 224 -51 1 -50 3 15 21 96 27 112 49 59 77 -37 20 -48 19 -63 -8 -28 -50
-65 -38 -103 33 -18 36 -81 142 -140 235 -118 190 -153 274 -153 373 0 70 117
331 142 316 8 -5 14 45 14 110 0 134 145 419 205 404 88 -23 106 -12 152 91
34 79 38 101 16 93 -27 -11 -38 -35 -31 -73 2 -10 -6 -11 -17 -5 -30 19 15
100 84 152 75 55 309 46 457 -18 49 -21 121 -45 159 -53 38 -8 105 -31 149
-50 209 -91 248 -103 286 -91 85 27 87 -126 3 -354 -31 -87 -31 -87 -109 -35
-78 52 -83 51 -121 -21 -22 -44 -26 -69 -10 -87 29 -36 6 -52 -74 -52 -38 0
-94 -18 -124 -39 -31 -22 -61 -35 -67 -29 -28 29 -92 -19 -105 -78 -8 -35 -20
-68 -27 -74 -7 -5 -29 -73 -49 -150 -19 -77 -49 -150 -65 -163 -26 -19 -25
-24 1 -34 20 -7 47 10 75 48 24 32 55 59 70 59 14 0 26 22 26 50 0 28 10 50
21 50 12 0 15 11 7 23 -18 29 -47 183 -32 168 6 -6 29 5 51 24 22 19 35 26 30
15 -38 -74 152 -118 265 -62 83 41 103 -8 35 -84 -111 -122 -115 -134 -37 -96
l70 34 -50 -40 c-27 -23 -62 -41 -77 -42 -15 0 -53 -28 -85 -62 -44 -47 -69
-59 -105 -51 -34 9 -60 -2 -93 -37 -59 -63 -202 -68 -326 -12 -46 20 -127 56
-180 79 -55 24 -91 51 -84 63 18 30 128 83 148 71 9 -5 26 12 39 40 28 62 9
63 -138 8 -60 -22 -125 -46 -145 -53 -21 -6 -32 -23 -25 -40 6 -16 11 -47 11
-68 0 -28 14 -38 51 -38 52 0 65 -10 139 -101 l40 -49 -56 49 c-80 71 -50 -7
41 -107 81 -89 166 -96 267 -22 128 93 148 98 237 63 72 -29 84 -29 94 -3 6
16 68 70 137 119 l126 90 245 5 c278 7 338 -19 238 -102 -48 -40 -48 -41 -6
-41 42 -1 67 -36 67 -93 0 -15 -15 -28 -33 -28 -30 0 -30 -3 -2 -35 16 -19 37
-57 45 -85 8 -27 32 -66 53 -87 21 -20 44 -63 51 -96 6 -33 32 -73 56 -89 50
-33 102 -130 179 -333 66 -175 52 -215 -75 -215 -35 0 -77 -9 -94 -20 -22 -14
-5 -19 60 -19 141 0 176 15 192 86 l13 63 20 -50 c25 -67 2 -317 -36 -374 -16
-24 -29 -52 -28 -60 0 -9 9 0 21 19 38 67 62 45 108 -103 l15 -49 -78 46
c-348 204 -447 318 -447 516 0 179 -42 289 -158 417 -56 61 -102 124 -102 140
0 45 54 32 71 -17 13 -40 16 -38 23 23 5 37 1 75 -9 85 -27 27 -160 -36 -175
-83 -16 -49 -45 -51 -95 -5 -36 32 -39 32 -58 0 -68 -123 -161 86 -101 228 26
62 33 101 20 109 -36 23 27 45 163 58 161 16 201 27 201 53 0 22 -153 9 -276
-23 -36 -9 -118 -63 -182 -119 -124 -106 -179 -125 -195 -64 -9 33 -24 29
-159 -42 -168 -88 -188 -113 -237 -295 -19 -71 -52 -169 -74 -217 -46 -104
-34 -136 17 -46 82 144 79 -63 -4 -287 -25 -66 -65 -208 -90 -316 -24 -108
-48 -192 -54 -187 -10 10 -11 332 -1 375 13 60 -41 26 -94 -58 -32 -52 -111
-162 -175 -246 -135 -176 -135 -175 -47 -231 l67 -43 94 138 c82 120 168 218
120 136 -41 -69 -196 -294 -240 -348 -112 -140 -203 -282 -195 -305 4 -14 -6
-25 -24 -25 -25 0 -30 16 -22 85 8 65 6 73 -7 35 -14 -39 -19 -22 -21 80 l-4
130 -28 -90 c-16 -49 -29 -112 -29 -140 0 -27 -18 -97 -40 -155 -22 -58 -40
-143 -40 -188 0 -139 -40 -239 -105 -262 -71 -25 -48 -58 68 -96 66 -22 86
-22 92 -3 5 14 21 37 37 53 15 15 28 42 28 58 0 17 8 35 17 41 10 6 19 56 20
111 2 94 14 115 229 405 125 168 243 331 263 361 40 61 62 65 174 32 64 -19
77 -32 77 -75 0 -29 19 -184 42 -345 47 -320 41 -444 -23 -518 -67 -77 -31
-125 52 -70 48 31 89 28 89 -7 0 -18 -269 -102 -325 -102 -48 0 -44 53 5 66
52 14 52 54 -1 54 -36 0 -41 11 -35 85 5 67 13 84 40 79 25 -4 37 14 47 70 6
42 20 102 31 134 10 32 18 84 18 116 0 32 10 77 22 100 17 32 16 39 -5 32 -15
-5 -56 -67 -91 -138 l-63 -128 -2 116 c-1 87 -7 113 -26 102 -20 -11 -20 -8 0
13 14 15 25 54 25 88 1 47 5 54 20 31 13 -21 19 18 20 127 0 162 -35 208 -61
80 -14 -68 -118 -225 -343 -522 -116 -152 -156 -221 -156 -266 0 -36 -8 -56
-20 -49 -12 8 -20 -28 -20 -93 0 -58 7 -96 17 -86 54 62 164 229 151 229 -9 0
2 14 23 31 22 18 28 26 14 19 -14 -7 -25 -7 -25 -1 0 7 23 21 52 32 34 13 48
30 41 49 -7 17 -2 30 11 30 12 0 17 6 10 13 -18 18 64 127 96 127 15 0 51 29
80 65 l53 65 -30 -62 c-17 -34 -81 -128 -142 -208 -61 -81 -111 -155 -111
-166 0 -10 -22 -35 -48 -56 -120 -94 -194 -229 -181 -327 8 -59 5 -91 -9 -91
-43 0 -21 -31 23 -34 36 -2 91 59 275 306 126 169 233 308 237 308 17 0 -90
-159 -258 -381 l-182 -241 86 6 c81 6 93 15 183 136 53 72 118 157 144 190
l48 60 -11 -70 c-6 -38 -44 -119 -84 -180 -40 -60 -76 -117 -80 -126 -4 -9 37
-14 90 -10 l97 6 0 109 c0 120 46 161 99 89 23 -31 35 -33 78 -13 49 22 52 20
64 -46 10 -49 24 -69 51 -69 20 0 46 -18 58 -40 12 -22 39 -40 61 -40 48 0 48
-12 -2 170 -42 152 -46 279 -9 282 45 4 120 45 85 47 -29 1 -35 20 -35 116 0
63 -14 158 -30 211 -29 98 -10 141 49 105 12 -8 21 5 21 30 0 34 -9 41 -40 33
-41 -11 -55 14 -20 36 12 7 10 26 -5 50 -13 21 -29 30 -35 20 -7 -11 -13 14
-14 55 -6 183 -10 212 -34 236 -40 40 -28 180 15 176 27 -2 30 3 11 25 -12 15
-17 41 -11 58 7 16 4 30 -6 30 -11 0 -15 18 -11 41 5 23 -3 45 -18 51 -14 5
-25 22 -25 38 0 16 7 24 15 19 8 -5 21 -1 27 10 7 10 27 14 44 7 22 -8 29 -3
23 16 -5 15 -18 28 -28 28 -34 1 -69 33 -56 53 6 11 -5 33 -25 50 -20 16 -27
25 -14 19 57 -28 83 140 59 371 -10 95 -7 115 22 126 30 11 31 16 5 34 -22 15
-23 22 -4 30 14 6 20 19 14 29 -6 10 -2 18 10 18 11 0 21 11 21 25 0 27 79 86
105 79 8 -2 15 4 15 15 0 10 47 -7 105 -38 58 -31 105 -69 105 -84 0 -15 9
-33 20 -41 13 -10 11 -29 -5 -55 -15 -24 -17 -41 -5 -41 11 0 20 8 20 19 0 10
41 15 90 11 54 -4 90 1 90 14 0 13 12 11 30 -4 40 -33 38 -92 -9 -287 -22 -90
-44 -194 -51 -233 -6 -38 -25 -113 -42 -166 -18 -52 -26 -109 -20 -126 6 -16
4 -25 -5 -20 -9 6 -41 -73 -72 -174 -104 -344 -167 -567 -177 -625 -17 -102
-38 -169 -53 -169 -8 0 -7 -52 2 -115 9 -63 11 -225 4 -360 l-13 -245 171 0
171 0 13 72 c16 86 -2 112 -41 59 -34 -47 -34 -59 2 181 16 109 30 273 30 364
0 163 1 166 45 154 41 -11 42 -10 10 16 -37 30 -47 74 -16 74 18 0 52 -77 46
-103 -4 -13 124 -136 217 -208 29 -22 67 -69 85 -103 41 -79 155 -174 283
-235 55 -26 122 -71 148 -99 63 -67 96 -67 53 0 -19 28 -29 57 -23 63 10 10
64 -99 99 -200 25 -72 57 -36 44 50 -12 83 -11 84 21 40 53 -72 95 -59 79 25
-11 60 -7 70 25 70 66 0 205 118 244 206 56 127 13 925 -56 1042 -37 62 -42
88 -27 142 17 60 10 80 -69 198 -49 72 -107 181 -130 242 -22 60 -53 122 -67
136 -14 14 -32 45 -39 68 -8 23 -27 53 -43 67 -16 13 -29 55 -29 92 0 37 -26
120 -57 183 -32 63 -104 232 -161 377 -57 144 -139 313 -183 376 -44 62 -98
151 -121 197 -23 46 -78 121 -122 167 -74 77 -90 139 -29 115 24 -9 133 95
133 127 0 8 11 15 24 15 27 0 36 33 86 302 41 220 45 343 13 403 -16 29 -17
45 -4 45 33 0 24 50 -18 105 -22 27 -34 56 -26 63 8 8 -1 9 -19 2 -36 -14 -68
20 -36 40 31 19 3 50 -46 50 -24 0 -35 7 -24 15 31 23 24 91 -10 100 -24 6
-25 4 -3 -11 40 -28 4 -41 -69 -26 -7 1 -2 15 10 30 49 58 -100 182 -218 181
-55 0 -100 7 -100 15 0 9 9 16 20 16 11 0 20 13 20 30 0 23 -11 25 -50 10 -39
-15 -50 -13 -50 10 0 17 -8 30 -18 30 -10 0 -14 -20 -10 -45 5 -25 3 -34 -3
-20 -7 14 -27 25 -46 25 -29 1 -29 3 -3 21 24 17 20 20 -20 16 -27 -3 -79 9
-115 27 -36 18 -60 25 -54 15z m-206 -246 c25 16 155 21 154 7 -3 -55 -159
-149 -159 -96 0 13 -11 11 -30 -4 -26 -22 -29 -20 -17 10 9 25 6 32 -10 22
-12 -8 -23 -27 -23 -42 0 -34 -33 -57 -59 -41 -23 15 27 141 56 141 11 0 27 7
36 16 9 9 19 7 23 -5 4 -12 17 -15 29 -8z m395 -33 c0 -11 12 -20 28 -20 15 0
39 -14 53 -31 14 -17 37 -26 52 -21 15 6 27 -2 27 -19 0 -16 22 -40 49 -52 51
-23 85 -77 49 -77 -11 0 -15 -9 -7 -21 7 -11 27 -16 46 -10 18 6 73 -17 123
-51 61 -41 74 -56 40 -47 -27 8 -60 28 -72 45 -17 23 -25 24 -37 5 -13 -20
-19 -20 -32 1 -9 15 -22 21 -29 14 -7 -6 24 -46 69 -87 44 -42 81 -87 81 -102
0 -15 37 -54 83 -87 94 -68 67 -82 -36 -18 -37 23 -67 35 -67 27 0 -8 -13 -3
-30 11 -38 32 -38 6 0 -68 27 -52 27 -55 -1 -31 -17 14 -45 51 -61 83 -18 35
-45 56 -72 56 -43 0 -43 -1 -5 -29 34 -26 35 -30 5 -30 -18 -1 -45 15 -60 35
-14 19 -50 37 -79 39 -102 8 -162 42 -151 87 7 24 0 45 -17 51 -16 6 -23 21
-16 32 7 12 4 16 -7 9 -11 -7 -37 5 -56 26 -43 47 -63 51 -63 12 0 -16 21 -38
46 -50 52 -24 63 -62 17 -62 -16 0 -44 23 -62 50 -42 65 -63 63 -60 -5 2 -43
18 -62 77 -90 98 -46 91 -55 -50 -55 -99 -1 -115 4 -115 31 0 16 -18 29 -39
29 -21 0 -46 11 -55 25 -22 34 -99 75 -114 60 -24 -23 -11 -42 33 -49 25 -4
43 -18 40 -31 -3 -14 8 -25 24 -25 31 0 62 -36 45 -53 -10 -10 -95 28 -114 51
-37 44 -92 54 -125 22 -53 -51 -138 -30 -127 31 6 32 -2 49 -24 53 -29 6 -27
13 12 52 25 25 40 54 33 65 -7 11 -24 6 -43 -12 -17 -17 -36 -25 -43 -19 -6 7
0 20 15 29 15 9 21 27 13 39 -7 12 0 22 18 22 17 0 31 11 31 23 0 13 5 18 12
12 7 -7 30 4 52 24 49 46 132 34 85 -13 -33 -33 -39 -54 -9 -36 30 18 24 -22
-7 -47 -15 -13 -34 -16 -43 -8 -9 8 -11 5 -3 -8 7 -12 -1 -34 -18 -48 -26 -22
-24 -28 15 -48 55 -28 116 -17 116 21 0 16 10 28 21 28 12 0 17 -7 11 -16 -19
-31 118 2 141 33 19 26 35 27 95 9 39 -12 77 -15 82 -6 15 25 -10 34 -98 37
-109 3 -118 23 -10 24 86 0 87 1 38 29 -45 26 -46 29 -10 31 40 2 40 2 0 21
-27 13 -1 14 80 5 66 -7 159 -11 208 -9 71 3 85 -2 75 -27 -6 -17 -4 -31 5
-31 35 0 34 51 0 83 -19 19 -39 29 -44 24 -16 -15 -114 16 -104 33 6 9 -1 21
-15 27 -14 5 0 11 30 11 30 1 55 -7 55 -18z m-442 -193 c-25 -26 -64 -47 -86
-47 -35 1 -37 4 -12 22 25 18 26 23 2 32 -41 17 54 63 102 51 36 -10 36 -12
-6 -58z m-397 -249 c15 -28 15 -38 2 -30 -27 17 -79 -62 -96 -146 -9 -46 -18
-57 -30 -39 -24 39 -21 117 5 117 12 0 17 14 10 31 -7 20 -4 26 12 17 15 -10
19 -4 11 16 -26 68 52 98 86 34z m931 -88 c52 -27 111 -50 131 -50 20 0 37
-10 37 -21 0 -12 -9 -16 -20 -9 -11 7 -20 1 -20 -12 0 -17 -11 -14 -35 7 -19
16 -57 37 -84 45 -27 9 -62 28 -77 43 -15 15 -37 21 -49 14 -12 -8 -15 -4 -7
10 19 30 15 31 124 -27z m248 -803 c39 -50 79 -101 91 -114 38 -43 112 -180
149 -279 l38 -99 -59 12 c-33 7 -59 3 -59 -7 0 -41 -69 -18 -153 52 -92 75
-94 99 -15 129 26 10 48 31 48 48 0 19 -11 25 -33 17 -27 -10 -31 -4 -22 30 8
30 -9 69 -57 129 -74 94 -90 175 -33 174 19 0 67 -42 105 -92z m-80 -135 c0
-5 6 -25 14 -45 11 -30 8 -33 -15 -14 -16 13 -65 29 -109 35 l-80 12 70 -24
70 -23 -82 -19 c-68 -15 -92 -12 -140 19 l-57 37 80 12 c98 15 249 21 249 10z
m-800 -502 c54 -27 115 -51 134 -51 31 -2 31 -4 -4 -18 -22 -8 -53 -11 -70 -6
-66 20 -160 75 -169 99 -13 35 -4 33 109 -24z m80 -152 c0 -27 -67 -22 -108 8
-32 23 -27 25 36 18 40 -5 72 -16 72 -26z m-352 -536 c87 -96 11 -52 -89 52
-96 99 -99 106 -29 52 44 -34 97 -81 118 -104z m1309 -44 c20 -33 16 -56 -26
-140 -27 -54 -60 -160 -73 -234 -13 -74 -31 -154 -40 -178 -12 -34 -10 -42 12
-33 15 6 34 39 41 74 8 35 24 81 36 103 12 22 22 46 22 53 1 8 8 20 16 29 8 8
15 39 15 69 0 64 59 128 61 66 1 -31 4 -30 20 8 37 93 45 21 11 -99 -9 -29
-28 -58 -44 -64 -15 -6 -28 -21 -28 -33 0 -12 -21 -50 -48 -85 -56 -75 -106
-207 -86 -227 18 -17 58 35 116 153 49 98 142 198 153 164 10 -28 -87 -217
-121 -238 -15 -9 -33 -33 -41 -54 -8 -21 -19 -32 -26 -26 -6 7 -25 -1 -41 -17
-16 -16 -37 -24 -48 -18 -10 6 -18 -26 -18 -72 0 -68 6 -81 32 -71 17 7 40 12
50 12 10 0 18 18 18 41 0 64 205 310 222 265 7 -20 -4 -69 -25 -112 -21 -41
-34 -83 -27 -93 14 -23 110 65 110 101 1 16 21 -6 45 -48 27 -47 54 -71 72
-64 20 8 25 -1 17 -31 -9 -33 -3 -38 28 -28 21 6 38 3 38 -8 0 -11 27 -26 60
-33 36 -8 61 -26 62 -47 1 -20 5 -24 11 -8 12 30 79 33 97 5 7 -11 44 -20 82
-20 85 0 109 -48 93 -186 -13 -123 57 -514 77 -424 13 60 13 60 16 6 1 -29 -6
-59 -16 -65 -10 -6 -14 -83 -9 -172 8 -124 5 -159 -15 -155 -24 6 -28 -2 -35
-66 -2 -17 -10 -17 -30 0 -21 17 -34 14 -55 -13 -25 -32 -25 -32 7 -8 23 18
35 20 35 5 0 -49 -112 -31 -176 29 -28 26 -58 42 -67 37 -9 -5 -37 1 -62 14
-41 22 -42 21 -18 -9 16 -18 45 -33 67 -33 21 0 33 -8 27 -18 -9 -15 33 -45
72 -50 29 -4 41 -32 29 -64 -11 -29 -17 -30 -47 -6 -19 16 -69 45 -110 66 -41
21 -75 46 -75 55 0 9 -10 17 -21 17 -12 0 -15 -11 -6 -25 8 -14 -18 2 -58 35
-40 33 -78 75 -84 93 -7 18 -29 51 -49 74 -39 46 -72 313 -49 401 10 35 6 45
-15 38 -21 -7 -30 -56 -34 -183 -3 -95 -10 -173 -16 -173 -21 0 -63 53 -77 96
-7 24 -23 44 -34 44 -10 0 -15 7 -10 15 12 20 -27 73 -75 99 -51 28 88 170
223 228 62 27 85 46 71 60 -14 14 -75 -5 -193 -60 -95 -43 -173 -76 -173 -72
0 4 -6 23 -13 42 -11 27 -6 32 19 22 18 -7 38 -4 45 7 6 10 -2 19 -19 19 -19
0 -26 11 -19 29 6 17 17 29 24 28 39 -5 80 6 114 31 36 27 35 28 -14 18 -44
-8 -58 1 -85 56 -35 69 -26 93 38 103 22 4 60 18 84 31 24 13 77 24 119 24 54
0 69 6 53 22 -16 16 -68 14 -188 -5 l-167 -28 -22 -139 c-42 -257 -96 -430
-135 -430 -28 0 -73 -64 -73 -106 -1 -20 -9 -31 -20 -25 -25 16 -37 -37 -39
-186 -2 -161 -9 -171 -82 -107 -62 55 -79 90 -34 73 19 -8 24 8 18 58 -4 38 2
74 14 82 12 7 22 48 22 91 0 43 9 83 19 89 11 7 15 25 9 40 -6 15 -2 33 10 40
11 7 15 27 8 45 -9 22 -5 28 11 18 12 -8 23 -7 24 2 3 73 28 185 51 230 15 30
28 71 28 93 0 21 20 53 45 72 34 25 36 30 9 22 -20 -6 -31 -2 -25 8 7 10 2 24
-11 32 -16 10 -16 18 -1 27 12 8 28 49 34 93 7 43 22 90 34 104 11 14 24 82
29 150 7 116 92 537 116 575 16 26 80 1 107 -42z m-998 -771 c1 -200 -3 -206
-143 -207 l-54 0 30 75 c16 41 42 99 59 128 16 29 29 71 29 92 0 22 11 69 23
106 35 99 54 32 56 -194z m1973 -432 c16 -140 -20 -160 -39 -22 -19 133 -17
179 6 156 11 -11 26 -71 33 -134z m-1142 -140 c-7 -25 -18 -61 -23 -80 -5 -19
-17 -35 -26 -35 -8 0 -6 36 6 80 12 44 29 80 38 80 10 0 12 -20 5 -45z m-1270
-683 c0 -30 -14 -51 -39 -57 -52 -14 -74 46 -28 79 50 38 67 32 67 -22z m935
-282 c-6 -34 0 -50 18 -50 15 0 27 -10 27 -21 0 -12 -9 -16 -20 -9 -11 7 -20
3 -20 -9 0 -11 -9 -21 -20 -21 -22 0 -28 126 -7 147 25 24 32 13 22 -37z"/>
<path d="M3585 4988 c-30 -13 -33 -61 -5 -78 41 -26 103 -28 94 -4 -5 13 -18
22 -30 20 -11 -3 -25 8 -31 24 -20 52 291 -41 332 -99 8 -13 15 -8 15 13 0 54
-304 155 -375 124z"/>
<path d="M3330 4801 c44 -21 94 -39 110 -39 43 -2 -62 50 -131 64 -49 10 -45
6 21 -25z"/>
<path d="M4370 1473 c-44 -13 -71 -30 -60 -37 31 -19 176 11 185 39 10 30 -19
30 -125 -2z"/>
<path d="M2540 4280 c-14 -25 -15 -53 -3 -73 10 -18 16 -47 13 -65 -2 -18 0
-20 5 -6 13 39 52 18 67 -37 14 -49 14 -49 16 5 1 29 -7 59 -18 66 -31 19 -23
90 12 103 25 10 26 16 5 29 -44 28 -74 21 -97 -22z"/>
<path d="M2840 4134 c0 -23 81 -180 111 -214 14 -16 26 -34 26 -40 1 -35 30
-78 47 -68 10 7 48 -19 84 -58 58 -63 72 -70 143 -60 119 16 116 26 -15 54
-30 7 -79 35 -110 64 l-56 51 89 -12 c98 -14 281 -105 281 -139 -1 -65 -32
-117 -84 -144 -33 -17 -55 -36 -48 -42 14 -14 173 88 170 109 -11 65 5 85 57
76 45 -8 43 -6 -10 12 -36 13 -66 30 -67 40 -2 9 -4 25 -5 36 -10 69 -433 292
-433 227 0 -25 79 -95 130 -117 38 -15 38 -16 -7 -24 -80 -14 -131 10 -169 79
-42 77 -134 193 -134 170z"/>
<path d="M2273 3532 c-337 -232 -493 -276 -1393 -393 -207 -27 -340 -141 -340
-291 0 -19 -80 -197 -177 -396 -98 -199 -193 -405 -212 -457 -30 -84 -41 -95
-93 -95 -56 0 -58 -3 -57 -95 l1 -95 33 60 c32 56 34 57 41 16 7 -46 24 -54
154 -75 44 -7 97 -18 117 -24 26 -8 35 -3 29 16 -6 16 -31 24 -63 21 -39 -5
-53 2 -53 27 0 29 5 30 33 6 30 -24 31 -23 11 16 -13 24 -33 47 -45 51 -30 10
-1 76 33 76 15 0 28 17 28 38 0 20 24 53 54 73 51 33 52 36 15 51 -38 15 -38
15 1 17 33 1 35 5 10 20 -24 15 -25 24 -5 44 14 14 25 41 25 61 0 20 14 36 30
36 17 0 30 -18 30 -41 0 -60 36 -119 74 -119 30 0 30 3 0 36 -39 43 -31 261
10 294 15 11 23 41 19 67 -4 34 1 43 18 32 17 -10 20 -7 10 9 -19 30 24 83 57
70 14 -5 25 4 25 21 0 17 -14 32 -31 32 -28 2 -28 4 -2 15 30 14 36 27 56 124
6 28 27 62 47 76 21 15 33 34 28 43 -6 9 7 21 29 27 42 11 68 -42 58 -119 -2
-20 1 -68 8 -107 44 -243 71 -439 64 -472 -5 -21 -13 -69 -18 -108 -5 -38 -20
-124 -33 -190 -12 -66 -22 -135 -22 -153 0 -22 -12 -29 -38 -22 -22 5 -39 0
-39 -13 0 -12 12 -22 26 -22 71 0 20 -302 -57 -337 -51 -23 -63 -52 -29 -73
11 -7 20 -2 20 10 0 12 18 5 39 -15 43 -40 30 -160 -16 -150 -13 3 -24 -15
-26 -40 -2 -25 -4 -60 -5 -78 -1 -18 -8 -40 -16 -48 -8 -8 -6 -31 5 -51 45
-85 -136 -122 -278 -58 -94 43 -123 38 -123 -20 0 -26 28 -46 100 -70 55 -18
114 -47 130 -63 40 -40 39 -95 -1 -79 -18 6 -26 3 -19 -8 18 -29 -37 -25 -67
5 -20 20 -23 18 -12 -10 9 -24 4 -35 -17 -35 -17 0 -34 11 -39 25 -7 20 -15
20 -39 0 -25 -21 -35 -20 -56 5 -27 33 -60 40 -60 13 0 -10 36 -41 80 -71 76
-50 96 -103 54 -145 -7 -7 -4 -25 8 -40 13 -15 19 -53 14 -86 -5 -32 -2 -55 7
-49 8 5 20 -25 27 -66 18 -118 54 -175 116 -182 66 -8 75 99 24 268 -43 141
-39 164 47 257 43 46 81 93 85 104 8 19 138 55 138 38 0 -4 -17 -47 -38 -95
-20 -49 -44 -128 -52 -177 -8 -49 -21 -98 -29 -109 -16 -20 -36 -107 -54 -225
-12 -74 80 -102 99 -30 9 32 10 32 12 -1 1 -28 15 -35 57 -30 45 5 54 15 50
56 -7 68 -7 82 2 140 4 28 9 70 10 95 2 25 12 45 24 45 11 0 43 23 71 50 l50
50 -51 0 c-28 0 -51 10 -51 21 0 12 9 16 21 9 13 -9 16 6 7 41 -12 49 -9 54
29 44 30 -8 43 -2 43 18 0 16 7 25 15 20 8 -5 16 17 17 49 3 76 -9 73 -37 -7
l-22 -65 -17 66 c-11 38 -26 60 -39 52 -14 -8 -17 2 -8 29 11 36 6 43 -36 43
-31 0 -54 -13 -59 -35 -5 -19 -11 6 -13 55 -2 51 -10 77 -17 60 -8 -16 -23
-32 -34 -34 -11 -1 -36 -9 -55 -17 -50 -19 -44 22 14 98 80 105 106 190 130
433 12 127 31 293 41 370 71 545 84 708 60 740 -8 11 -30 119 -49 240 -18 121
-37 232 -42 246 -12 36 68 61 144 43 42 -9 69 -6 76 8 8 17 14 16 23 -2 8 -19
19 -17 42 6 17 17 55 29 84 26 28 -3 63 1 77 10 14 9 44 10 66 3 23 -7 54 -2
70 11 16 13 29 16 30 6 0 -9 13 0 29 21 23 30 35 33 57 14 23 -18 31 -18 39 2
7 17 11 13 12 -9 2 -31 -37 -87 -114 -168 -15 -15 -21 -27 -13 -27 8 0 -19
-40 -58 -88 l-73 -88 120 -56 c66 -30 120 -64 120 -75 0 -11 6 -14 13 -7 7 7
29 4 50 -7 21 -12 37 -12 37 -2 0 10 -53 41 -118 69 -156 68 -159 75 -56 209
48 63 112 153 140 199 45 71 61 82 106 74 35 -6 61 2 77 25 35 46 86 51 159
13 58 -30 60 -30 34 2 -18 21 -21 41 -9 53 11 11 29 -16 46 -73 23 -78 22 -95
-1 -110 -23 -14 -23 -17 -1 -18 22 0 21 -10 -5 -49 -41 -63 -41 -83 -1 -50 17
14 30 17 28 7 -8 -41 2 -70 21 -58 11 7 20 9 20 5 0 -12 -255 -195 -273 -195
-22 -1 -122 -79 -101 -80 9 0 88 46 176 102 88 57 165 97 172 90 7 -6 1 -12
-12 -12 -14 0 -22 -11 -17 -25 5 -14 -19 -52 -52 -85 l-60 -60 53 -19 c58 -20
92 -115 57 -157 -11 -14 -23 -60 -27 -104 -4 -57 -14 -78 -34 -74 -21 5 -23
-1 -8 -20 11 -14 18 -42 15 -61 -3 -19 3 -35 13 -35 10 0 18 -18 18 -40 0 -22
-9 -40 -20 -40 -25 0 -18 -41 13 -74 13 -14 21 -73 18 -136 -3 -61 3 -116 12
-122 10 -6 11 -21 3 -34 -8 -13 -16 -66 -17 -117 -1 -57 -15 -106 -35 -126
-18 -18 -27 -46 -20 -65 9 -22 5 -28 -11 -18 -31 19 -29 -15 6 -99 28 -66 27
-69 -15 -71 -34 -2 -36 -5 -9 -12 19 -5 36 -22 38 -37 1 -16 4 -40 5 -54 2
-14 -8 -55 -23 -91 -14 -36 -21 -74 -14 -85 6 -10 2 -19 -8 -19 -12 0 -17 -43
-12 -103 7 -80 1 -113 -26 -143 -37 -41 -37 -47 4 -94 22 -25 20 -48 -14 -135
-51 -134 -64 -120 -68 72 -4 192 -18 305 -48 395 -12 38 -18 81 -13 94 5 13
-4 37 -21 52 -26 24 -28 23 -19 -10 6 -21 17 -83 24 -138 8 -55 18 -122 23
-150 5 -27 9 -68 8 -90 0 -22 0 -73 0 -113 0 -84 -29 -115 -59 -62 -12 19 -21
25 -21 12 -1 -27 48 -71 63 -56 6 6 11 -12 11 -40 0 -29 20 -68 48 -90 26 -22
36 -40 21 -40 -15 -1 -20 -11 -12 -24 8 -13 6 -18 -4 -12 -10 6 -36 -1 -57
-17 -34 -24 -34 -28 -5 -28 19 0 34 -10 34 -21 0 -12 -7 -17 -15 -12 -8 5 -15
-15 -15 -45 0 -51 7 -55 85 -59 75 -4 85 0 85 37 0 24 9 59 20 80 123 229 214
946 239 1870 32 1239 49 1385 180 1575 103 151 73 145 -186 -33z"/>
<path d="M2962 3654 c-2 -32 95 -144 111 -128 16 16 -45 113 -67 105 -13 -5
-28 6 -32 25 -8 30 -10 30 -12 -2z"/>
<path d="M2602 3434 c-6 -110 152 -430 261 -526 51 -44 46 -34 -83 164 -92
141 -118 195 -156 328 -11 39 -21 54 -22 34z"/>
<path d="M4168 2948 c-127 -52 -234 -188 -148 -188 11 0 20 12 20 27 0 43 61
87 185 133 63 23 119 51 126 61 20 33 -57 19 -183 -33z"/>
<path d="M1281 2672 c-14 -27 -20 -57 -13 -68 7 -11 2 -24 -11 -28 -15 -5 -19
-23 -10 -47 13 -32 18 -33 34 -8 15 24 19 22 22 -11 5 -62 9 -75 44 -154 18
-41 33 -93 33 -115 0 -23 13 -41 29 -41 25 0 25 11 3 75 -77 221 -100 384 -60
415 37 28 37 29 -4 29 -24 1 -52 -19 -67 -47z"/>
<path d="M3865 2448 c-35 -28 -73 -46 -83 -39 -10 6 -23 -3 -29 -19 -17 -44
29 -36 90 15 30 25 70 56 90 69 20 13 28 24 17 25 -11 0 -49 -22 -85 -51z"/>
<path d="M1440 2107 c0 -18 103 -332 113 -345 30 -39 18 34 -23 134 -28 68
-50 141 -50 162 0 22 -9 45 -20 52 -11 7 -20 5 -20 -3z"/>
<path d="M4864 1966 c-13 -45 -23 -98 -22 -118 1 -21 14 7 29 62 34 120 27
170 -7 56z"/>
<path d="M540 1839 c12 -22 32 -34 44 -26 12 7 17 4 10 -7 -18 -29 135 -146
190 -145 l46 2 -44 17 c-24 10 -63 37 -86 60 -23 23 -50 36 -61 30 -10 -7 -19
3 -19 22 0 32 -53 86 -86 87 -8 1 -6 -17 6 -40z"/>
<path d="M1600 1625 c79 -246 109 -356 104 -380 -3 -14 8 -25 24 -25 18 0 26
-12 20 -28 -6 -16 4 -54 22 -85 30 -54 32 -54 20 -7 -8 28 -16 64 -19 80 -3
17 -16 57 -30 90 -13 33 -27 74 -31 91 -20 97 -117 379 -131 379 -9 0 0 -52
21 -115z"/>
<path d="M280 1572 c0 -29 23 -41 65 -34 8 1 15 -6 15 -16 0 -31 78 -39 102
-10 19 23 13 28 -30 28 -29 0 -76 15 -103 32 -45 30 -49 30 -49 0z"/>
<path d="M535 1342 c-6 -21 -1 -48 11 -60 26 -26 61 -29 45 -4 -16 26 44 68
79 55 16 -7 30 -4 30 5 0 18 -68 41 -123 42 -18 0 -37 -17 -42 -38z"/>
<path d="M390 1266 c-94 -38 -100 -42 -85 -57 6 -7 28 -3 48 8 20 12 62 26 92
32 30 7 55 21 55 31 0 26 -14 24 -110 -14z"/>
<path d="M233 1186 c-8 -8 -34 -15 -59 -16 -157 -8 -174 -12 -174 -37 0 -20
35 -27 135 -27 147 1 247 -19 270 -54 10 -15 14 -13 15 5 0 23 6 23 30 3 17
-14 37 -19 45 -12 20 20 -30 48 -150 84 -58 17 -100 39 -94 49 13 22 2 25 -18
5z"/>
<path d="M1162 1113 c-12 -15 -21 -67 -19 -116 2 -48 -8 -122 -22 -164 -14
-42 -21 -80 -16 -84 5 -5 20 29 34 76 14 47 34 91 45 97 13 9 12 29 -3 57 -33
60 -13 101 50 101 46 0 49 3 22 30 -37 37 -62 38 -91 3z"/>
<path d="M1236 1066 c-49 -8 -52 -13 -31 -47 29 -47 50 -50 59 -10 4 20 15 24
34 12 39 -24 13 -78 -47 -101 -28 -10 -51 -22 -51 -26 0 -17 123 1 143 21 28
28 3 166 -29 162 -13 -2 -48 -7 -78 -11z"/>
<path d="M70 1040 c-34 -15 -32 -17 20 -18 33 -1 74 7 90 18 39 25 -51 25
-110 0z"/>
<path d="M231 1002 c-15 -25 8 -35 103 -47 35 -4 59 0 54 9 -6 9 -31 16 -55
16 -25 0 -55 10 -67 22 -15 15 -25 15 -35 0z"/>
<path d="M0 942 c0 -30 70 -37 96 -9 21 22 15 27 -35 27 -34 0 -61 -8 -61 -18z"/>
<path d="M0 859 c0 -8 41 -21 91 -28 65 -10 89 -22 85 -44 -4 -19 22 -40 74
-58 102 -36 140 -36 57 0 -55 24 -107 71 -78 71 6 0 68 -27 138 -60 70 -33
144 -60 164 -60 51 0 15 27 -81 59 -44 14 -104 44 -134 64 -53 38 -316 84
-316 56z"/>
<path d="M0 743 c0 -23 49 -43 107 -42 34 0 37 4 13 17 -55 31 -120 45 -120
25z"/>
<path d="M180 525 c0 -32 48 -65 94 -65 25 0 46 8 46 19 0 10 -18 15 -40 11
-22 -4 -53 6 -70 23 -16 16 -30 22 -30 12z"/>
<path d="M1370 201 c-22 -8 -50 -12 -62 -7 -25 9 -47 -55 -48 -139 0 -46 9
-55 50 -55 49 0 50 2 19 49 -30 45 -29 49 11 71 51 27 120 -21 120 -83 0 -36
76 -54 106 -24 21 20 -66 128 -120 148 -26 11 -43 28 -36 39 14 23 14 23 -40
1z"/>
<path d="M5061 62 c-28 -53 -19 -68 36 -59 36 6 38 12 14 55 l-26 49 -24 -45z"/>
</g>
</svg>
